<svg width="182" height="60" viewBox="0 0 182 60" fill="none" xmlns="http://www.w3.org/2000/svg">
<path d="M27.5625 32.2266C27.5625 34.1953 27.2266 35.9922 26.5547 37.6172C25.8828 39.2422 24.9688 40.6406 23.8125 41.8125C22.6562 42.9688 21.2969 43.8672 19.7344 44.5078C18.1875 45.1484 16.5234 45.4688 14.7422 45.4688C12.9766 45.4688 11.3125 45.1406 9.75 44.4844C8.20312 43.8281 6.84374 42.9141 5.67187 41.7422C4.51561 40.5703 3.60155 39.1797 2.92968 37.5703C2.2578 35.9453 1.92188 34.1641 1.92188 32.2266V9.91406H8.34375V21.6328C8.6875 21.1953 9.10156 20.8047 9.58594 20.4609C10.0859 20.1172 10.6172 19.8359 11.1797 19.6172C11.7578 19.3984 12.3516 19.2344 12.9609 19.125C13.5703 19 14.1641 18.9375 14.7422 18.9375C16.5234 18.9375 18.1875 19.2734 19.7344 19.9453C21.2969 20.6016 22.6562 21.5234 23.8125 22.7109C24.9688 23.8984 25.8828 25.3047 26.5547 26.9297C27.2266 28.5391 27.5625 30.3047 27.5625 32.2266ZM21.1172 32.2266C21.1172 31.2578 20.9453 30.3594 20.6016 29.5312C20.2734 28.6875 19.8203 27.9609 19.2422 27.3516C18.6641 26.7422 17.9844 26.2656 17.2031 25.9219C16.4375 25.5781 15.6172 25.4062 14.7422 25.4062C13.8672 25.4062 13.0391 25.6016 12.2578 25.9922C11.4922 26.3672 10.8203 26.875 10.2422 27.5156C9.66406 28.1406 9.21093 28.8672 8.8828 29.6953C8.55468 30.5078 8.39062 31.3516 8.39062 32.2266C8.39062 33.1953 8.55468 34.0938 8.8828 34.9219C9.21093 35.75 9.66406 36.4688 10.2422 37.0781C10.8203 37.6875 11.4922 38.1719 12.2578 38.5312C13.0391 38.875 13.8672 39.0469 14.7422 39.0469C15.6172 39.0469 16.4375 38.875 17.2031 38.5312C17.9844 38.1719 18.6641 37.6875 19.2422 37.0781C19.8203 36.4688 20.2734 35.75 20.6016 34.9219C20.9453 34.0938 21.1172 33.1953 21.1172 32.2266ZM55.3828 32.2266C55.3828 34.1016 55.0469 35.8516 54.375 37.4766C53.7031 39.0859 52.7891 40.4844 51.6328 41.6719C50.4766 42.8438 49.1172 43.7734 47.5547 44.4609C46.0078 45.1328 44.3438 45.4688 42.5625 45.4688C40.7969 45.4688 39.1328 45.1328 37.5703 44.4609C36.0234 43.7734 34.6641 42.8438 33.4922 41.6719C32.3359 40.4844 31.4219 39.0859 30.75 37.4766C30.0781 35.8516 29.7422 34.1016 29.7422 32.2266C29.7422 30.3203 30.0781 28.5547 30.75 26.9297C31.4219 25.3047 32.3359 23.9062 33.4922 22.7344C34.6641 21.5469 36.0234 20.6172 37.5703 19.9453C39.1328 19.2734 40.7969 18.9375 42.5625 18.9375C44.3438 18.9375 46.0078 19.2578 47.5547 19.8984C49.1172 20.5234 50.4766 21.4219 51.6328 22.5938C52.7891 23.75 53.7031 25.1484 54.375 26.7891C55.0469 28.4141 55.3828 30.2266 55.3828 32.2266ZM48.9375 32.2266C48.9375 31.1953 48.7656 30.2656 48.4219 29.4375C48.0938 28.5938 47.6406 27.875 47.0625 27.2812C46.4844 26.6719 45.8047 26.2109 45.0234 25.8984C44.2578 25.5703 43.4375 25.4062 42.5625 25.4062C41.6875 25.4062 40.8594 25.5703 40.0781 25.8984C39.3125 26.2109 38.6406 26.6719 38.0625 27.2812C37.5 27.875 37.0547 28.5938 36.7266 29.4375C36.3984 30.2656 36.2344 31.1953 36.2344 32.2266C36.2344 33.1953 36.3984 34.0938 36.7266 34.9219C37.0547 35.75 37.5 36.4688 38.0625 37.0781C38.6406 37.6875 39.3125 38.1719 40.0781 38.5312C40.8594 38.875 41.6875 39.0469 42.5625 39.0469C43.4375 39.0469 44.2578 38.8828 45.0234 38.5547C45.8047 38.2266 46.4844 37.7656 47.0625 37.1719C47.6406 36.5781 48.0938 35.8594 48.4219 35.0156C48.7656 34.1719 48.9375 33.2422 48.9375 32.2266ZM65.3203 45H58.9219V19.8984H60.4688L62.5781 22.3359C63.6094 21.3984 64.7734 20.6797 66.0703 20.1797C67.3828 19.6641 68.75 19.4062 70.1719 19.4062C71.7031 19.4062 73.1484 19.7031 74.5078 20.2969C75.8672 20.875 77.0547 21.6797 78.0703 22.7109C79.0859 23.7266 79.8828 24.9219 80.4609 26.2969C81.0547 27.6562 81.3516 29.1094 81.3516 30.6562V45H74.9531V30.6562C74.9531 30 74.8281 29.3828 74.5781 28.8047C74.3281 28.2109 73.9844 27.6953 73.5469 27.2578C73.1094 26.8203 72.6016 26.4766 72.0234 26.2266C71.4453 25.9766 70.8281 25.8516 70.1719 25.8516C69.5 25.8516 68.8672 25.9766 68.2734 26.2266C67.6797 26.4766 67.1641 26.8203 66.7266 27.2578C66.2891 27.6953 65.9453 28.2109 65.6953 28.8047C65.4453 29.3828 65.3203 30 65.3203 30.6562V45Z" fill="#666666" fill-opacity="0.52"/>
<path d="M111 34.9219C111 36.3125 110.734 37.6172 110.203 38.8359C109.672 40.0547 108.945 41.125 108.023 42.0469C107.117 42.9531 106.055 43.6719 104.836 44.2031C103.617 44.7344 102.312 45 100.922 45H84.1172V11.3906H100.922C102.312 11.3906 103.617 11.6562 104.836 12.1875C106.055 12.7188 107.117 13.4453 108.023 14.3672C108.945 15.2734 109.672 16.3359 110.203 17.5547C110.734 18.7734 111 20.0781 111 21.4688C111 22.0938 110.914 22.7344 110.742 23.3906C110.57 24.0469 110.328 24.6797 110.016 25.2891C109.703 25.8984 109.328 26.4531 108.891 26.9531C108.453 27.4531 107.969 27.8672 107.438 28.1953C107.984 28.4922 108.477 28.8984 108.914 29.4141C109.352 29.9141 109.727 30.4688 110.039 31.0781C110.352 31.6875 110.586 32.3281 110.742 33C110.914 33.6562 111 34.2969 111 34.9219ZM90.8438 38.2734H100.922C101.391 38.2734 101.828 38.1875 102.234 38.0156C102.641 37.8438 102.992 37.6094 103.289 37.3125C103.602 37 103.844 36.6406 104.016 36.2344C104.188 35.8281 104.273 35.3906 104.273 34.9219C104.273 34.4531 104.188 34.0156 104.016 33.6094C103.844 33.2031 103.602 32.8516 103.289 32.5547C102.992 32.2422 102.641 32 102.234 31.8281C101.828 31.6562 101.391 31.5703 100.922 31.5703H90.8438V38.2734ZM90.8438 24.8438H100.922C101.391 24.8438 101.828 24.7578 102.234 24.5859C102.641 24.4141 102.992 24.1797 103.289 23.8828C103.602 23.5703 103.844 23.2109 104.016 22.8047C104.188 22.3828 104.273 21.9375 104.273 21.4688C104.273 21 104.188 20.5625 104.016 20.1562C103.844 19.75 103.602 19.3984 103.289 19.1016C102.992 18.7891 102.641 18.5469 102.234 18.375C101.828 18.2031 101.391 18.1172 100.922 18.1172H90.8438V24.8438ZM121.852 45H115.406V9.91406H121.852V45ZM151.008 32.2266C151.008 34.1016 150.672 35.8516 150 37.4766C149.328 39.0859 148.414 40.4844 147.258 41.6719C146.102 42.8438 144.742 43.7734 143.18 44.4609C141.633 45.1328 139.969 45.4688 138.188 45.4688C136.422 45.4688 134.758 45.1328 133.195 44.4609C131.648 43.7734 130.289 42.8438 129.117 41.6719C127.961 40.4844 127.047 39.0859 126.375 37.4766C125.703 35.8516 125.367 34.1016 125.367 32.2266C125.367 30.3203 125.703 28.5547 126.375 26.9297C127.047 25.3047 127.961 23.9062 129.117 22.7344C130.289 21.5469 131.648 20.6172 133.195 19.9453C134.758 19.2734 136.422 18.9375 138.188 18.9375C139.969 18.9375 141.633 19.2578 143.18 19.8984C144.742 20.5234 146.102 21.4219 147.258 22.5938C148.414 23.75 149.328 25.1484 150 26.7891C150.672 28.4141 151.008 30.2266 151.008 32.2266ZM144.562 32.2266C144.562 31.1953 144.391 30.2656 144.047 29.4375C143.719 28.5938 143.266 27.875 142.688 27.2812C142.109 26.6719 141.43 26.2109 140.648 25.8984C139.883 25.5703 139.062 25.4062 138.188 25.4062C137.312 25.4062 136.484 25.5703 135.703 25.8984C134.938 26.2109 134.266 26.6719 133.688 27.2812C133.125 27.875 132.68 28.5938 132.352 29.4375C132.023 30.2656 131.859 31.1953 131.859 32.2266C131.859 33.1953 132.023 34.0938 132.352 34.9219C132.68 35.75 133.125 36.4688 133.688 37.0781C134.266 37.6875 134.938 38.1719 135.703 38.5312C136.484 38.875 137.312 39.0469 138.188 39.0469C139.062 39.0469 139.883 38.8828 140.648 38.5547C141.43 38.2266 142.109 37.7656 142.688 37.1719C143.266 36.5781 143.719 35.8594 144.047 35.0156C144.391 34.1719 144.562 33.2422 144.562 32.2266ZM172.406 32.2266C172.406 31.3516 172.234 30.5078 171.891 29.6953C171.562 28.8672 171.109 28.1406 170.531 27.5156C169.953 26.875 169.273 26.3672 168.492 25.9922C167.727 25.6016 166.906 25.4062 166.031 25.4062C165.156 25.4062 164.328 25.5547 163.547 25.8516C162.781 26.1484 162.109 26.5859 161.531 27.1641C160.969 27.7422 160.523 28.4609 160.195 29.3203C159.867 30.1641 159.703 31.1328 159.703 32.2266C159.703 33.2734 159.867 34.2188 160.195 35.0625C160.523 35.8906 160.969 36.6016 161.531 37.1953C162.109 37.7891 162.781 38.25 163.547 38.5781C164.328 38.8906 165.156 39.0469 166.031 39.0469C166.906 39.0469 167.727 38.8594 168.492 38.4844C169.273 38.0938 169.953 37.5859 170.531 36.9609C171.109 36.3203 171.562 35.5938 171.891 34.7812C172.234 33.9531 172.406 33.1016 172.406 32.2266ZM178.852 41.8359C178.852 43.6016 178.516 45.2578 177.844 46.8047C177.172 48.3516 176.25 49.7031 175.078 50.8594C173.922 52.0156 172.562 52.9297 171 53.6016C169.453 54.2734 167.797 54.6094 166.031 54.6094L162.82 54.5625V48.1641L165.984 48.2109C166.984 48.2109 167.836 48.0781 168.539 47.8125C169.242 47.5625 169.836 47.2109 170.32 46.7578C170.805 46.3203 171.188 45.8125 171.469 45.2344C171.766 44.6562 172 44.0469 172.172 43.4062C171.922 43.8125 171.562 44.1484 171.094 44.4141C170.625 44.6641 170.102 44.8672 169.523 45.0234C168.961 45.1953 168.367 45.3125 167.742 45.375C167.133 45.4375 166.562 45.4688 166.031 45.4688C164.266 45.4688 162.602 45.1641 161.039 44.5547C159.492 43.9453 158.133 43.0781 156.961 41.9531C155.805 40.8125 154.891 39.4219 154.219 37.7812C153.547 36.1406 153.211 34.2891 153.211 32.2266C153.211 30.3359 153.547 28.5781 154.219 26.9531C154.891 25.3281 155.805 23.9219 156.961 22.7344C158.133 21.5469 159.492 20.6172 161.039 19.9453C162.602 19.2734 164.266 18.9375 166.031 18.9375C166.844 18.9375 167.648 19.0391 168.445 19.2422C169.242 19.4453 170.016 19.7266 170.766 20.0859C171.516 20.4453 172.227 20.8672 172.898 21.3516C173.586 21.8359 174.227 22.3594 174.82 22.9219L177.305 19.9453H178.852V41.8359Z" fill="black"/>
<mask id="mask0_107_75" style="mask-type:alpha" maskUnits="userSpaceOnUse" x="84" y="11" width="27" height="34">
<path d="M111 34.9219C111 36.3125 110.734 37.6172 110.203 38.8359C109.672 40.0547 108.945 41.125 108.023 42.0469C107.117 42.9531 106.055 43.6719 104.836 44.2031C103.617 44.7344 102.312 45 100.922 45H84.1172V11.3906H100.922C102.312 11.3906 103.617 11.6562 104.836 12.1875C106.055 12.7188 107.117 13.4453 108.023 14.3672C108.945 15.2734 109.672 16.3359 110.203 17.5547C110.734 18.7734 111 20.0781 111 21.4688C111 22.0938 110.914 22.7344 110.742 23.3906C110.57 24.0469 110.328 24.6797 110.016 25.2891C109.703 25.8984 109.328 26.4531 108.891 26.9531C108.453 27.4531 107.969 27.8672 107.438 28.1953C107.984 28.4922 108.477 28.8984 108.914 29.4141C109.352 29.9141 109.727 30.4688 110.039 31.0781C110.352 31.6875 110.586 32.3281 110.742 33C110.914 33.6562 111 34.2969 111 34.9219ZM90.8438 38.2734H100.922C101.391 38.2734 101.828 38.1875 102.234 38.0156C102.641 37.8438 102.992 37.6094 103.289 37.3125C103.602 37 103.844 36.6406 104.016 36.2344C104.188 35.8281 104.273 35.3906 104.273 34.9219C104.273 34.4531 104.188 34.0156 104.016 33.6094C103.844 33.2031 103.602 32.8516 103.289 32.5547C102.992 32.2422 102.641 32 102.234 31.8281C101.828 31.6562 101.391 31.5703 100.922 31.5703H90.8438V38.2734ZM90.8438 24.8438H100.922C101.391 24.8438 101.828 24.7578 102.234 24.5859C102.641 24.4141 102.992 24.1797 103.289 23.8828C103.602 23.5703 103.844 23.2109 104.016 22.8047C104.188 22.3828 104.273 21.9375 104.273 21.4688C104.273 21 104.188 20.5625 104.016 20.1562C103.844 19.75 103.602 19.3984 103.289 19.1016C102.992 18.7891 102.641 18.5469 102.234 18.375C101.828 18.2031 101.391 18.1172 100.922 18.1172H90.8438V24.8438Z" fill="black"/>
</mask>
<g mask="url(#mask0_107_75)">
<path opacity="0.5" d="M84.4375 32.2266C84.4375 34.1953 84.7734 35.9922 85.4453 37.6172C86.1172 39.2422 87.0312 40.6406 88.1875 41.8125C89.3438 42.9688 90.7031 43.8672 92.2656 44.5078C93.8125 45.1484 95.4766 45.4688 97.2578 45.4688C99.0234 45.4688 100.688 45.1406 102.25 44.4844C103.797 43.8281 105.156 42.9141 106.328 41.7422C107.484 40.5703 108.398 39.1797 109.07 37.5703C109.742 35.9453 110.078 34.1641 110.078 32.2266V9.91406H103.656V21.6328C103.312 21.1953 102.898 20.8047 102.414 20.4609C101.914 20.1172 101.383 19.8359 100.82 19.6172C100.242 19.3984 99.6484 19.2344 99.0391 19.125C98.4297 19 97.8359 18.9375 97.2578 18.9375C95.4766 18.9375 93.8125 19.2734 92.2656 19.9453C90.7031 20.6016 89.3438 21.5234 88.1875 22.7109C87.0312 23.8984 86.1172 25.3047 85.4453 26.9297C84.7734 28.5391 84.4375 30.3047 84.4375 32.2266ZM90.8828 32.2266C90.8828 31.2578 91.0547 30.3594 91.3984 29.5312C91.7266 28.6875 92.1797 27.9609 92.7578 27.3516C93.3359 26.7422 94.0156 26.2656 94.7969 25.9219C95.5625 25.5781 96.3828 25.4062 97.2578 25.4062C98.1328 25.4062 98.9609 25.6016 99.7422 25.9922C100.508 26.3672 101.18 26.875 101.758 27.5156C102.336 28.1406 102.789 28.8672 103.117 29.6953C103.445 30.5078 103.609 31.3516 103.609 32.2266C103.609 33.1953 103.445 34.0938 103.117 34.9219C102.789 35.75 102.336 36.4688 101.758 37.0781C101.18 37.6875 100.508 38.1719 99.7422 38.5312C98.9609 38.875 98.1328 39.0469 97.2578 39.0469C96.3828 39.0469 95.5625 38.875 94.7969 38.5312C94.0156 38.1719 93.3359 37.6875 92.7578 37.0781C92.1797 36.4688 91.7266 35.75 91.3984 34.9219C91.0547 34.0938 90.8828 33.1953 90.8828 32.2266Z" fill="white"/>
</g>
</svg>
